<?xml version="1.0" encoding="iso-8859-1"?>
<!-- Uploaded to: SVG Repo, www.svgrepo.com, Generator: SVG Repo Mixer Tools -->
<svg fill="" height="800px" width="800px" version="1.1" id="Layer_1" xmlns="http://www.w3.org/2000/svg" xmlns:xlink="http://www.w3.org/1999/xlink"
	 viewBox="0 0 512 512" xml:space="preserve">
<g>
	<g>
		<path d="M413.342,120.062l27.981,6.995l-31.704-19.021c7.64,0.581,24.425,0.44,35.109-10.245
			c14.189-14.186,9.786-39.137,9.786-39.137s-24.462-4.893-39.14,9.783c-12.055,12.057-10.908,30.705-10.114,36.984l-88.708-53.226
			C313.796,22.997,283.988,0,247.593,0c-36.191,0-65.873,22.74-68.913,51.703c-0.165,1.053-0.104,9.295,0.198,11.441
			c3.494,31.607,26.468,59.616,48.756,86.771c7.551,9.199,15.183,18.505,22.015,27.88c-11.013-2.134-22.996-3.259-35.639-3.257
			c-16.197,0.001-33.472,1.831-51.121,5.696C88.232,196.581,35,243.117,43.991,284.176c6.865,31.354,48.016,50.446,100.335,50.446
			c4.641,0,9.381-0.169,14.184-0.475v46.391c-8.402,6.31-13.838,16.358-13.838,27.675c0,11.317,5.435,21.366,13.838,27.676V512
			l89.945-0.003l-48.432-24.216V435.89c8.402-6.31,13.838-16.359,13.838-27.676c0-11.318-5.435-21.365-13.838-27.675v-52.662
			c64.556-15.381,112.051-53.324,115.14-89.921c0.138-0.97,0.235-1.955,0.235-2.965c0-43.581-29.58-79.617-55.676-111.413
			c-2.88-3.508-5.734-6.988-8.518-10.436c20.315-0.854,38.303-8.885,50.281-21.044l100.333,25.084
			c-14.703,24.747-57.359,100.102-57.359,141.335c0,34.39,27.878,62.27,62.27,62.27c34.391,0,62.27-27.88,62.27-62.27
			C468.998,218.775,429.372,147.335,413.342,120.062z M273.788,233.867c0.4,1.818-2.379,10.203-14.851,21.104
			c-17.029,14.888-43.408,27.064-72.372,33.406c-14.351,3.141-28.563,4.734-42.24,4.734c-41.297,0-58.988-14.185-59.782-17.813
			c-0.398-1.818,2.38-10.203,14.851-21.104c17.029-14.888,43.408-27.064,72.371-33.406c14.348-3.141,28.563-4.734,42.248-4.735
			h0.006C255.307,216.052,272.994,230.237,273.788,233.867z M247.593,71.705c-16.071,0-26.306-8.564-27.545-14.023
			c-0.039-0.473-0.071-0.944-0.091-1.411c0.417-5.387,10.818-14.757,27.637-14.757c17.167,0,27.676,9.774,27.676,15.096
			C275.269,61.931,264.761,71.705,247.593,71.705z M406.728,279.271c-11.447,0-20.757-9.311-20.757-20.757
			c0-4.554,1.604-21.77,20.757-62.491c19.153,40.722,20.757,57.937,20.757,62.491C427.484,269.961,418.174,279.271,406.728,279.271z
			"/>
	</g>
</g>
</svg>
